<svg width="31" height="30" viewBox="0 0 31 30" fill="none" xmlns="http://www.w3.org/2000/svg">
<rect x="0.5" y="0.0012207" width="30" height="30" rx="15" fill="#F5F5F5"/>
<path d="M22.0999 8.03097C22.2629 8.03097 22.3777 8.06126 22.4374 8.08426C22.5092 8.27526 22.6054 8.95974 21.8979 9.66774L18.2887 13.2767L18.3147 13.7245C18.3694 14.6615 18.4709 16.3407 18.5584 17.7802C18.6357 19.0615 18.7089 20.2715 18.7137 20.3745C18.7162 20.4452 18.7172 20.462 18.6512 20.5415C18.5037 20.7207 18.2284 21.0245 17.9964 21.2762C17.6367 20.307 16.8807 18.2597 16.4632 17.1137L15.9267 15.6392L14.8169 16.749L12.7762 18.7112L12.4919 18.995L12.4832 19.3962C12.4764 19.7165 12.4779 20.2912 12.4787 20.798C12.4797 21.151 12.4807 21.4717 12.4782 21.6485C12.4737 21.6567 12.5464 21.6665 12.5397 21.6782C12.4962 21.6085 12.4494 21.5332 12.3999 21.455C11.9884 20.7987 11.4189 19.891 11.2452 19.6077L11.1182 19.4002L10.9097 19.2742C10.1514 18.8162 9.31144 18.2875 8.79894 17.9572C8.81669 17.947 8.83118 18.0012 8.84293 17.995H8.87618C9.03743 17.995 9.30393 17.9985 9.60268 18.0027C9.99343 18.008 10.4367 18.0145 10.7759 18.0145C10.9059 18.0145 11.0214 18.0135 11.1144 18.0115L11.5157 18.0022L11.7994 17.7185L13.7642 15.6917L14.8702 14.5862L13.4024 14.0462C12.2994 13.6405 10.1867 12.8515 9.19844 12.4802C9.45193 12.2467 9.75743 11.9695 9.93568 11.822C9.98543 11.781 10.0242 11.76 10.0509 11.76L10.0862 11.761C10.1964 11.7662 11.5657 11.8557 12.8894 11.9422C14.2947 12.034 15.8807 12.1375 16.7824 12.1947L17.2331 12.223L20.8429 8.61297C21.3499 8.10672 21.8479 8.03097 22.0999 8.03097ZM22.0999 7.03102C21.5092 7.03102 20.784 7.25799 20.1362 7.90599L16.8455 11.1965C14.992 11.0792 10.245 10.7652 10.1272 10.762C10.1018 10.7607 10.0764 10.76 10.051 10.76C9.89071 10.76 9.61396 10.7907 9.29896 11.051C8.92921 11.3567 8.15821 12.0818 8.15821 12.0818C7.97221 12.2682 7.87796 12.4992 7.90046 12.7165C7.91421 12.8477 7.98546 13.087 8.30771 13.213C8.50346 13.2898 11.6187 14.4553 13.0572 14.9845L11.0925 17.0113C11.0055 17.0133 10.8977 17.0143 10.776 17.0143C10.177 17.0143 9.24821 16.9948 8.87594 16.9948C8.82669 16.9948 8.78719 16.9948 8.75918 16.9958C8.64593 16.9993 8.41143 16.9435 7.79293 17.4605L7.74893 17.5015C7.56343 17.687 7.51993 17.872 7.51593 17.9943C7.51193 18.1203 7.54568 18.3018 7.72793 18.4478C7.83743 18.5363 9.24118 19.435 10.3924 20.1303C10.6684 20.5805 11.9384 22.599 12.0047 22.7085C12.1014 22.872 12.2597 22.9653 12.4489 22.9713H12.4647C12.6487 22.9713 12.8377 22.88 13.0227 22.7003C13.5462 22.088 13.4739 21.8345 13.4762 21.728C13.4844 21.394 13.4704 19.979 13.4824 19.418L15.5229 17.4555C16.0444 18.888 17.1844 21.9713 17.2607 22.1675C17.3877 22.4897 17.6269 22.5605 17.7582 22.5737C17.7797 22.5762 17.8017 22.5773 17.8232 22.5773C18.0204 22.5773 18.2249 22.4845 18.3924 22.317C18.3924 22.317 19.1152 21.55 19.4222 21.1768C19.7297 20.8038 19.7177 20.4853 19.7117 20.335C19.7092 20.231 19.4197 15.5098 19.3122 13.666L22.6037 10.3745C23.7702 9.20749 23.5847 7.80126 23.1514 7.36876C22.9602 7.17651 22.5729 7.03104 22.0999 7.03102Z" fill="#AFAFAF" fill-opacity="0.666667"/>
</svg>
