<svg width="31" height="30" viewBox="0 0 31 30" fill="none" xmlns="http://www.w3.org/2000/svg">
<rect width="31" height="30.0025" rx="15.0013" fill="#F5F5F5"/>
<path d="M9.5 17C10.0763 16.9999 10.635 17.1989 11.0815 17.5633C11.5279 17.9278 11.8347 18.4353 11.95 19H19V9H8C7.46957 9 6.96086 9.21071 6.58579 9.58579C6.21071 9.96086 6 10.4696 6 11V19H7.05C7.16527 18.4353 7.47209 17.9278 7.91855 17.5633C8.36501 17.1989 8.92367 16.9999 9.5 17ZM9.5 22C8.92367 22.0001 8.36501 21.8011 7.91855 21.4367C7.47209 21.0722 7.16527 20.5647 7.05 20H5V11C5 10.2044 5.31607 9.44129 5.87868 8.87868C6.44129 8.31607 7.20435 8 8 8H19C19.2652 8 19.5196 8.10536 19.7071 8.29289C19.8946 8.48043 20 8.73478 20 9V11H23L26 15V20H23.95C23.8352 20.5651 23.5286 21.0732 23.0821 21.4382C22.6356 21.8031 22.0767 22.0025 21.5 22.0025C20.9233 22.0025 20.3644 21.8031 19.9179 21.4382C19.4714 21.0732 19.1648 20.5651 19.05 20H11.95C11.8347 20.5647 11.5279 21.0722 11.0815 21.4367C10.635 21.8011 10.0763 22.0001 9.5 22ZM9.5 18C9.10218 18 8.72064 18.158 8.43934 18.4393C8.15804 18.7206 8 19.1022 8 19.5C8 19.8978 8.15804 20.2794 8.43934 20.5607C8.72064 20.842 9.10218 21 9.5 21C9.89782 21 10.2794 20.842 10.5607 20.5607C10.842 20.2794 11 19.8978 11 19.5C11 19.1022 10.842 18.7206 10.5607 18.4393C10.2794 18.158 9.89782 18 9.5 18ZM21.5 17C22.0763 16.9999 22.635 17.1989 23.0815 17.5633C23.5279 17.9278 23.8347 18.4353 23.95 19H25V15.32L24.76 15H20V17.5C20.42 17.19 20.94 17 21.5 17ZM21.5 18C21.1022 18 20.7206 18.158 20.4393 18.4393C20.158 18.7206 20 19.1022 20 19.5C20 19.8978 20.158 20.2794 20.4393 20.5607C20.7206 20.842 21.1022 21 21.5 21C21.8978 21 22.2794 20.842 22.5607 20.5607C22.842 20.2794 23 19.8978 23 19.5C23 19.1022 22.842 18.7206 22.5607 18.4393C22.2794 18.158 21.8978 18 21.5 18ZM20 12V14H24L22.5 12H20Z" fill="#ACACAC"/>
</svg>
