<svg width="66" height="65" viewBox="0 0 66 65" fill="none" xmlns="http://www.w3.org/2000/svg">
<path d="M33.1257 4.95877C40.3782 4.95877 46.9209 7.73125 51.8284 12.2836L41.3036 22.8788C40.8761 23.3063 40.8761 23.9463 41.3036 24.3013C41.7311 24.7288 42.3711 24.7288 42.7261 24.3013L53.3213 13.7061C57.8714 18.6137 60.6461 25.2261 60.6461 32.4089C60.6461 47.6261 48.3434 59.9289 33.1261 59.9289C25.8737 59.9289 19.3309 57.1564 14.4234 52.6041L18.1209 48.9066C18.5484 48.4791 18.5484 47.8391 18.1209 47.4841C17.9084 47.2716 17.6934 47.1991 17.4109 47.1991C17.1259 47.1991 16.9134 47.3416 16.7009 47.4841L13.0034 51.254C8.37836 46.2741 5.60562 39.7315 5.60562 32.479C5.60562 17.2617 17.9084 4.95877 33.1257 4.95877ZM33.1257 2.89624C16.8409 2.89624 3.54297 16.1936 3.54297 32.479C3.54297 48.7644 16.7705 62.0617 33.1257 62.0617C49.4809 62.0617 62.7084 48.7644 62.7084 32.479C62.7084 16.1936 49.4111 2.89624 33.1257 2.89624Z" fill="black"/>
<path d="M36.3266 41.6513C37.6066 43.1438 38.8166 43.7838 40.5216 43.8563C42.8691 43.9988 44.2916 46.8438 42.9391 48.8338C40.2366 53.5988 32.2716 50.1838 30.9916 45.9888C30.1391 43.7838 31.4891 40.9388 33.8366 40.6563C34.7615 40.7288 35.6166 40.8688 36.3266 41.6513ZM27.8639 36.9588C28.8589 36.9588 29.9964 37.4563 30.4939 38.3089C30.9214 38.9489 31.1339 39.5188 31.1339 40.1588C29.8539 41.1539 29.1439 42.8614 29.0714 44.4264C28.6439 44.7814 28.1464 45.1364 27.5789 45.4939C24.5914 47.2014 21.3914 47.3439 19.8291 44.6414C18.7616 42.3664 20.0416 40.3039 22.1041 40.0189C23.8816 39.8064 25.0191 38.6689 26.0142 37.8139C26.5142 37.2439 27.2239 36.9588 27.8639 36.9588ZM23.4564 13.634C23.5989 13.634 23.6689 13.634 23.8839 13.704C28.6489 14.7716 32.9866 17.829 33.2714 22.9488C33.2714 23.3763 33.6264 23.7314 34.1239 23.7314C37.0389 23.7314 39.8139 26.0789 40.8087 30.2011C40.9512 30.6286 41.3787 30.9111 41.8037 30.8411C46.9937 29.6336 49.8363 31.7686 52.3259 35.7487C53.1784 36.8861 53.036 37.4562 52.1834 38.4512C50.1209 41.2962 46.7084 43.5012 43.5082 43.5012C42.4407 43.5012 41.7308 42.4336 40.5932 42.2212C38.9582 42.0087 38.3182 41.2262 37.5358 40.5136C36.4682 39.4461 34.9057 38.9487 33.6257 39.1636C33.3407 39.2336 33.0557 39.3061 32.7733 39.3761C32.6308 38.7361 32.3458 38.0961 31.9907 37.4561C31.0657 35.8911 29.2183 35.1086 27.5107 35.3236C26.5157 34.0436 25.8032 32.2662 25.9457 30.3462C25.9457 30.0612 25.8032 29.7062 25.5182 29.5636C20.1858 26.3636 18.9755 20.5339 22.1757 15.2712C22.4607 14.7737 22.8157 14.2762 23.1707 13.8486C23.1707 13.7061 23.2414 13.634 23.4564 13.634ZM23.5964 11.999C22.0314 11.929 21.3914 13.1365 20.6814 14.3466C17.1964 20.1066 18.6189 26.9341 24.3089 30.6314C24.2389 32.6214 24.9489 34.4013 25.8014 35.8214C25.4464 36.0339 25.0914 36.3189 24.8064 36.6039C23.9539 37.5989 22.8864 38.1689 21.9614 38.2389C18.5489 38.5939 16.6989 42.5064 18.4764 45.3487C20.6814 48.8337 24.8064 49.0461 28.5039 46.7712C28.7889 46.5587 29.0739 46.3437 29.3564 46.2012C30.9914 51.9612 40.8066 55.7314 44.4316 49.6862C45.3566 48.1937 45.3566 46.4862 44.7166 44.9937C48.3441 44.5662 51.6868 42.0787 53.7464 39.0912C54.8139 37.7412 54.9563 36.3887 53.9589 35.0387C51.4689 30.7012 47.7014 27.9289 42.0837 29.1362C40.8737 25.1537 38.1011 22.6664 34.8312 22.3087C34.1937 16.5487 29.0016 12.7811 23.5964 11.999Z" fill="black"/>
<path d="M28.2911 24.2285C27.2961 25.011 25.5187 24.656 24.4511 23.161C23.3836 21.7385 23.5261 19.961 24.5936 19.1785C25.5886 18.3959 27.3661 18.751 28.4336 20.246C29.4987 21.741 29.3561 23.5185 28.2911 24.2285ZM29.2861 25.581C31.2061 24.1585 31.2762 21.3135 29.7136 19.3235C28.2212 17.261 25.4461 16.5511 23.5986 17.901C21.6786 19.3235 21.6086 22.1685 23.1711 24.1585C24.6636 26.221 27.4362 27.0035 29.2861 25.581Z" fill="black"/>
<path d="M31.1362 27.9987C32.3462 27.0037 34.4787 27.3587 35.9012 29.0662C37.2512 30.7738 37.1812 32.9062 35.9712 33.9012C34.7612 34.8962 32.6287 34.5412 31.2062 32.8337C29.7837 31.1987 29.8562 29.0662 31.1362 27.9987ZM30.0687 26.7187C28.0062 28.4262 28.0062 31.6262 29.8562 33.9014C31.7062 36.1764 34.8337 36.889 36.9659 35.1814C39.0285 33.4739 39.0285 30.2739 37.1784 27.9987C35.2584 25.7237 32.131 25.0837 30.0687 26.7187Z" fill="black"/>
<path d="M43.9351 39.6614C42.0151 39.6614 40.6651 38.3113 40.6651 36.8164C40.6651 35.3239 42.0876 33.9714 44.0076 34.0439C45.9276 34.0439 47.2776 35.3939 47.2776 36.8889C47.2051 38.3814 45.7826 39.6614 43.9351 39.6614ZM43.8626 41.2964C46.5651 41.2964 48.8401 39.3764 48.9126 36.8864C48.9126 34.3264 46.6376 32.3364 44.0051 32.3364C41.3025 32.3364 39.0276 34.2564 38.9551 36.7464C38.9551 39.3064 41.2326 41.2964 43.8626 41.2964Z" fill="black"/>
<path d="M27.0114 39.1636C26.7989 39.1636 26.5839 39.3061 26.4414 39.4486C25.3739 40.7286 24.8064 40.9411 23.5964 41.0836C23.1689 41.1536 22.8139 41.5811 22.8864 42.0086C22.9564 42.4361 23.3839 42.7911 23.8114 42.7186C25.2339 42.5061 26.4414 41.9361 27.7214 40.5136C28.0064 40.1586 28.0064 39.6612 27.6514 39.3762C27.4364 39.2337 27.2239 39.1636 27.0114 39.1636Z" fill="black"/>
<path d="M35.6152 42.8617C35.4027 42.8617 35.1877 42.9317 35.0453 43.0742C34.6903 43.3591 34.6902 43.9266 34.9752 44.2116C36.3253 45.7041 37.5352 46.4166 39.2428 46.5591C39.6703 46.5591 40.0952 46.2741 40.0952 45.7766C40.0952 45.3491 39.7402 44.9241 39.3127 44.9241C37.8902 44.8541 37.3927 44.5691 36.2552 43.2166C36.0402 42.9316 35.8277 42.8617 35.6152 42.8617Z" fill="black"/>
</svg>
