<svg width="66" height="65" viewBox="0 0 66 65" fill="none" xmlns="http://www.w3.org/2000/svg">
<g clip-path="url(#clip0_468_1035)">
<mask id="mask0_468_1035" style="mask-type:luminance" maskUnits="userSpaceOnUse" x="0" y="0" width="65" height="65">
<path d="M64.625 0.47876H0.625V64.4788H64.625V0.47876Z" fill="white"/>
</mask>
<g mask="url(#mask0_468_1035)">
<path d="M42.3951 29.4613C42.0426 29.1138 41.3326 29.0563 40.4751 29.1738C41.8676 27.1513 43.5201 22.5914 42.3801 21.4612C41.2651 20.3562 36.6101 22.0962 34.6425 23.4837C35.7725 22.5012 36.765 20.8912 36.76 19.2212C36.75 17.5987 35.7625 15.4837 35.3426 14.6512C33.795 11.6112 32.92 11.6212 32.5651 11.6162C32.1801 11.6162 31.3751 11.6212 29.8451 14.6712C29.4226 15.5187 28.4376 17.6587 28.4426 19.2637C28.4526 20.9162 29.3701 22.2187 29.9151 22.8487C30.0326 22.9812 30.2576 23.2212 30.5451 23.4787C28.5501 22.0962 23.9326 20.4062 22.8273 21.5062C21.7023 22.6312 23.3448 27.1388 24.7373 29.176C23.3823 28.9735 23.0348 29.3135 22.8448 29.506C21.7199 30.631 23.3623 35.1385 24.7549 37.1758C23.4048 36.9733 23.0523 37.3133 22.8624 37.5058C22.5999 37.7683 21.9874 38.3758 23.0599 41.6133C23.3524 42.5033 24.1649 44.6958 25.3049 45.8433C26.4724 47.0108 28.0399 47.2883 28.8774 47.3533C28.9899 47.3633 29.1599 47.3683 29.3624 47.3683C29.9974 47.3683 30.9724 47.2833 31.6499 46.8183V52.2858C31.6599 52.8733 32.1349 53.3534 32.7224 53.3534C33.3099 53.3534 33.7899 52.8734 33.7899 52.2858V46.8883C34.4449 47.2783 35.3249 47.3583 35.9224 47.3583C36.1399 47.3583 36.3224 47.3483 36.4349 47.3358C37.2674 47.2708 38.8399 46.9883 39.9974 45.8158C41.4324 44.3659 43.6874 38.7381 42.4074 37.4683C42.0599 37.1208 41.3624 37.0633 40.5099 37.1758C41.3674 35.9808 41.9649 34.3233 42.2124 33.5758C43.2674 30.3333 42.6549 29.7258 42.3949 29.4633L42.3951 29.4613ZM32.63 35.0338C32.465 33.9288 32.0125 32.7988 31.175 31.9563C30.93 31.7113 30.63 31.4813 30.31 31.2688C30.9925 31.1513 31.5624 30.9163 31.9 30.5863C32.2575 30.2288 32.5075 29.6164 32.625 28.8788C32.7425 29.6088 32.9975 30.2238 33.355 30.5813C33.77 30.9913 34.385 31.1888 34.965 31.2788C34.5975 31.5138 34.2874 31.7438 34.08 31.9563C33.2474 32.7988 32.795 33.9288 32.635 35.0388L32.63 35.0338ZM35.58 25.4562C36.53 24.4962 39.2325 23.5512 40.605 23.2812C40.35 24.6363 39.4325 27.3237 38.455 28.3113C37.3925 29.3838 35.3675 29.3237 34.855 29.0688C34.5875 28.5663 34.5075 26.5413 35.575 25.4638L35.58 25.4562ZM32.5925 14.1538C33.3699 15.2888 34.62 17.8438 34.63 19.2263C34.635 20.7364 33.1625 22.1289 32.62 22.3038C32.075 22.1388 30.5875 20.7613 30.5825 19.2489C30.5775 17.8988 31.82 15.3189 32.5975 14.1564L32.5925 14.1538ZM32.62 24.4463H32.63C33.1 24.4463 33.665 24.2113 34.22 23.8163C34.1675 23.8588 34.1075 23.9063 34.065 23.9488C33.2325 24.7913 32.78 25.9213 32.62 27.0313C32.455 25.9263 32.0025 24.7963 31.165 23.9538C31.1325 23.9213 31.085 23.8838 31.0475 23.8463C31.5125 24.1713 32.06 24.4438 32.625 24.4438L32.62 24.4463ZM29.65 25.4638C30.7225 26.5363 30.6525 28.5612 30.385 29.0638C29.8725 29.3263 27.8475 29.3888 26.7849 28.3212C25.81 27.3387 24.8749 24.6512 24.6199 23.3038C25.9949 23.5763 28.7 24.5088 29.655 25.4638H29.65ZM29.665 33.4638C30.7375 34.5363 30.6675 36.5612 30.4 37.0638C29.8875 37.3263 27.8625 37.3888 26.7999 36.3212C25.825 35.3387 24.8899 32.6512 24.6349 31.3038C26.0099 31.5763 28.715 32.5088 29.67 33.4638H29.665ZM30.4175 45.0638C29.91 45.3263 27.88 45.3888 26.8175 44.3213C25.8425 43.3387 24.9075 40.6512 24.6525 39.3038C26.0275 39.5763 28.7325 40.5088 29.6875 41.4638C30.76 42.5363 30.69 44.5613 30.4225 45.0638H30.4175ZM38.4924 44.3013C37.4299 45.3738 35.4049 45.3138 34.8924 45.0588C34.6249 44.5563 34.5449 42.5313 35.6124 41.4538C36.5624 40.4938 39.2649 39.5488 40.6374 39.2788C40.3824 40.6338 39.4649 43.3213 38.4874 44.3088L38.4924 44.3013ZM34.0974 39.9488C33.2549 40.8012 32.8024 41.9488 32.6474 43.0638C32.5249 42.1938 32.1724 40.9363 31.1974 39.9538C30.9524 39.7088 30.6524 39.4788 30.3324 39.2663C31.0149 39.1488 31.5849 38.9138 31.9224 38.5838C32.2799 38.2263 32.5299 37.6138 32.6474 36.8763C32.7649 37.6062 33.0199 38.2213 33.3774 38.5788C33.7249 38.9213 34.3099 39.1538 35.0049 39.2663C34.6324 39.5063 34.3124 39.7413 34.1024 39.9538L34.0974 39.9488ZM38.4749 36.3013C37.4123 37.3738 35.3874 37.3138 34.8748 37.0588C34.6073 36.5563 34.5273 34.5313 35.5948 33.4538C36.5449 32.4938 39.2473 31.5488 40.6199 31.2788C40.3649 32.6288 39.4474 35.3213 38.4699 36.3088L38.4749 36.3013ZM32.6249 0.478516H32.5599C14.9176 0.511015 0.592415 14.8933 0.625056 32.5438C0.640056 41.0936 3.98506 49.1186 10.0427 55.1512C16.0852 61.1662 24.1003 64.4786 32.6251 64.4786H32.6901C50.3324 64.4461 64.6627 50.0638 64.6249 32.4133C64.5924 14.7934 50.2396 0.478516 32.6249 0.478516ZM32.6824 62.3461H32.6249C24.7951 62.3461 17.6648 59.3111 12.3323 54.3608L21.0146 45.6459C21.4296 45.2309 21.4296 44.5534 21.0146 44.1359C20.5996 43.7209 19.9221 43.7209 19.5046 44.1359L10.8223 52.8508C5.83976 47.5233 2.77492 40.381 2.76468 32.5308C2.73218 16.061 16.1023 2.63826 32.5721 2.60562H32.6296C40.4594 2.60562 47.5897 5.64063 52.9221 10.5909L44.5221 19.0236C44.1071 19.4386 44.1071 20.1161 44.5221 20.5336C44.7296 20.7411 45.0021 20.8436 45.2746 20.8436C45.5472 20.8436 45.8246 20.7361 46.0322 20.5286L54.4322 12.096C59.4147 17.4234 62.4795 24.5657 62.4898 32.416C62.5223 48.8857 49.1522 62.3084 32.6824 62.3411V62.3461Z" fill="black"/>
</g>
</g>
<defs>
<clipPath id="clip0_468_1035">
<rect width="65" height="64" fill="white" transform="translate(0.5 0.47876)"/>
</clipPath>
</defs>
</svg>
