<svg width="38" height="40" viewBox="0 0 38 40" fill="none" xmlns="http://www.w3.org/2000/svg">
<path d="M26.4689 14.95C26.3689 14.85 26.2689 14.85 26.0689 14.85C25.7689 14.85 25.5689 14.85 25.2689 14.75C23.5689 14.35 22.3689 13.05 22.2689 11.35V10.95C22.2689 10.65 22.0689 10.45 21.7689 10.45H18.6689C18.3689 10.45 18.1689 10.65 18.1689 10.95V23.45C18.1689 24.65 17.1689 25.55 16.0689 25.55C15.3689 25.55 14.7689 25.25 14.3689 24.75C13.6689 23.85 13.8689 22.45 14.7689 21.75C15.1689 21.45 15.5689 21.45 16.3689 21.45C16.4689 21.45 16.6689 21.45 16.7689 21.35C16.8689 21.25 16.9689 21.15 16.9689 20.95V17.65C16.9689 17.45 16.7689 17.15 16.5689 17.15C14.9689 16.95 13.3689 17.35 12.1689 18.35C11.0689 19.35 10.2689 20.75 10.0689 22.45C9.76891 24.35 10.4689 26.3499 11.7689 27.65C12.9689 28.9499 14.6689 29.55 16.2689 29.55C17.8689 29.55 19.4689 28.95 20.6689 27.75C21.8689 26.5499 22.5689 24.95 22.5689 23.25V17.75C23.7689 18.35 25.0689 18.75 26.3689 18.75C26.6689 18.75 26.8689 18.55 26.8689 18.25V15.25C26.6689 15.15 26.5689 15.05 26.4689 14.95Z" fill="white"/>
</svg>
