<svg width="124" height="24" viewBox="0 0 124 24" fill="none" xmlns="http://www.w3.org/2000/svg">
<path d="M5.825 21.5L7.45 14.475L2 9.75L9.2 9.125L12 2.5L14.8 9.125L22 9.75L16.55 14.475L18.175 21.5L12 17.775L5.825 21.5Z" fill="#1D3E57"/>
<path d="M30.825 21.5L32.45 14.475L27 9.75L34.2 9.125L37 2.5L39.8 9.125L47 9.75L41.55 14.475L43.175 21.5L37 17.775L30.825 21.5Z" fill="#1D3E57"/>
<path d="M55.825 21.5L57.45 14.475L52 9.75L59.2 9.125L62 2.5L64.8 9.125L72 9.75L66.55 14.475L68.175 21.5L62 17.775L55.825 21.5Z" fill="#1D3E57"/>
<path d="M80.825 21.5L82.45 14.475L77 9.75L84.2 9.125L87 2.5L89.8 9.125L97 9.75L91.55 14.475L93.175 21.5L87 17.775L80.825 21.5Z" fill="#1D3E57"/>
<path d="M105.825 21.5L107.45 14.475L102 9.75L109.2 9.125L112 2.5L114.8 9.125L122 9.75L116.55 14.475L118.175 21.5L112 17.775L105.825 21.5Z" fill="#1D3E57"/>
</svg>
