<svg width="49" height="60" viewBox="0 0 49 60" fill="none" xmlns="http://www.w3.org/2000/svg">
<path d="M13.6522 47.8512C12.1819 47.8512 10.878 47.5028 9.82029 46.8184C6.44107 44.6324 3.65182 37.6069 3.5345 37.3091L3.27982 36.6613L3.97546 36.6258C4.27129 36.6108 11.2583 36.2835 14.6387 38.4702C16.0817 39.4035 17.2033 41.0785 17.8828 43.314C18.3866 44.9718 18.4751 46.3473 18.4784 46.4051L18.4995 46.749L18.1853 46.8912C18.1358 46.9134 16.9558 47.4434 15.3477 47.7073C14.7627 47.8034 14.1961 47.8512 13.6522 47.8512ZM4.74613 37.6074C5.52358 39.4052 7.82846 44.3368 10.3653 45.9778C12.9009 47.6184 16.3736 46.5173 17.4446 46.1118C17.3879 45.6157 17.2456 44.6545 16.918 43.584C16.4926 42.1929 15.6574 40.3224 14.0943 39.3113C11.5831 37.6868 6.60285 37.5846 4.74613 37.6074Z" fill="#60983E"/>
<path d="M28.0882 47.209C27.3642 47.209 26.7081 47.1352 26.172 46.9841C25.9057 46.909 25.7505 46.6324 25.8261 46.3663C25.9012 46.1001 26.1781 45.9457 26.4445 46.0207C27.4944 46.3169 29.5696 46.3085 31.8395 45.6207C33.6523 45.0713 36.1852 43.9085 37.9552 41.4864C39.9375 38.773 41.1815 35.1553 41.5513 31.0237C41.881 27.3387 41.4657 23.5432 40.3796 20.2538C38.0908 21.9171 35.7192 22.8149 33.4204 23.686C29.6686 25.1065 26.1248 26.4487 22.9262 30.902C21.8168 32.4464 21.0378 34.9997 20.8932 37.5658C20.7214 40.6102 21.4599 43.333 22.9718 45.2335C23.1442 45.4502 23.1081 45.7652 22.8912 45.9368C22.6743 46.109 22.359 46.073 22.1872 45.8563C20.5218 43.7635 19.7071 40.7991 19.8923 37.5091C20.0469 34.7636 20.8976 32.0081 22.1116 30.3181C25.4864 25.6193 29.3388 24.1604 33.0645 22.7493C35.4801 21.8349 37.9774 20.8888 40.3162 19.0455L40.8601 18.6166L41.0976 19.2672C42.3982 22.8343 42.9136 27.041 42.5489 31.1126C42.1629 35.4247 40.854 39.2158 38.7642 42.0763C36.8308 44.7224 34.0894 45.9852 32.1303 46.5785C30.7629 46.9929 29.3266 47.209 28.0882 47.209Z" fill="#60983E"/>
<path d="M19.7237 59.0383C19.7187 59.0383 19.7142 59.0383 19.7092 59.0383C19.4323 59.0305 19.2143 58.7999 19.2221 58.5239C19.3072 55.4861 19.7976 52.475 20.6785 49.5734C21.4942 46.8873 22.6703 44.2129 24.1745 41.6246C26.7824 37.1363 30.3975 32.8036 35.2253 28.3792C35.4294 28.1925 35.7464 28.2059 35.9332 28.4097C36.1201 28.6136 36.1066 28.9303 35.9026 29.1169C31.1504 33.4719 27.5976 37.7274 25.0408 42.1268C23.5756 44.6485 22.4307 47.2518 21.6371 49.864C20.7819 52.6806 20.3064 55.6033 20.2236 58.5522C20.2158 58.8239 19.9934 59.0388 19.7231 59.0388L19.7237 59.0383Z" fill="#60983E"/>
<path d="M24.5 60C21.1925 60 17.9839 59.3528 14.9634 58.0761C12.0456 56.8434 9.426 55.0784 7.1761 52.8306C4.92621 50.5829 3.15962 47.9651 1.92567 45.0507C0.647821 42.033 0 38.8275 0 35.523C0 32.2187 0.647821 29.0131 1.92567 25.9954C3.15962 23.0804 4.92621 20.4632 7.1761 18.2155C9.426 15.9678 12.0462 14.2028 14.9634 12.97C17.9839 11.6934 21.1925 11.0461 24.5 11.0461C27.8075 11.0461 31.016 11.6934 34.0366 12.97C36.9544 14.2028 39.574 15.9678 41.8238 18.2155C44.0737 20.4632 45.8404 23.081 47.0743 25.9954C48.3521 29.0131 49 32.2187 49 35.523C49 38.8275 48.3521 42.033 47.0743 45.0507C45.8404 47.9657 44.0737 50.5829 41.8238 52.8306C39.574 55.0784 36.9538 56.8434 34.0366 58.0761C31.016 59.3528 27.8075 60 24.5 60ZM24.5 12.0478C21.3276 12.0478 18.2503 12.6683 15.3537 13.8922C12.5556 15.0744 10.0427 16.7672 7.88452 18.9232C5.72646 21.0793 4.03208 23.5899 2.84876 26.3854C1.62373 29.2792 1.0026 32.3536 1.0026 35.523C1.0026 38.6924 1.62373 41.7668 2.84876 44.6607C4.03208 47.4563 5.72646 49.9668 7.88452 52.1228C10.0427 54.279 12.5556 55.9717 15.3537 57.1539C18.2503 58.3778 21.3276 58.9984 24.5 58.9984C27.6724 58.9984 30.7497 58.3778 33.6462 57.1539C36.4444 55.9717 38.9573 54.279 41.1154 52.1228C43.2735 49.9668 44.9679 47.4563 46.1512 44.6607C47.3762 41.7668 47.9974 38.6924 47.9974 35.523C47.9974 32.3536 47.3762 29.2792 46.1512 26.3854C44.9679 23.5899 43.2735 21.0793 41.1154 18.9232C38.9573 16.7672 36.4444 15.0744 33.6462 13.8922C30.7497 12.6683 27.6724 12.0478 24.5 12.0478Z" fill="#60983E"/>
<path d="M12.111 9.83952L7.61294 4.25294L8.7184 3.7585L12.4074 8.55955L12.5097 8.51402L11.3759 2.57129L12.4441 2.09352L13.6625 9.1462L12.111 9.83952Z" fill="#60983E"/>
<path d="M19.243 1.4618L16.1841 2.14624L16.5956 3.98177L18.8599 3.47511L19.0868 4.48732L16.8224 4.99398L17.2428 6.86951L20.3018 6.18508L20.5309 7.20727L16.3698 8.13897L14.8523 1.3718L19.0134 0.440143L19.2425 1.46236L19.243 1.4618Z" fill="#60983E"/>
<path d="M23.9813 4.56399L23.9602 3.52678L26.219 3.48011L26.2913 6.98729L25.243 7.00896L25.2264 6.20563L25.1041 6.20841C24.8722 6.82341 24.4307 7.1273 23.6471 7.14339L23.5859 7.14452C22.3342 7.17007 21.4929 6.34341 21.4579 4.64565L21.4156 2.59235C21.3806 0.894586 22.3398 0.030706 23.7339 0.00181745L23.795 0.000706381C25.1686 -0.0276266 26.1628 0.79625 26.1978 2.49401L25.0685 2.51735C25.0445 1.35847 24.6502 1.00014 23.8156 1.01736L23.7544 1.01848C22.8998 1.03625 22.5205 1.41013 22.5444 2.56901L22.5867 4.62232C22.6106 5.78119 23.0049 6.13953 23.8396 6.1223L23.8901 6.12119C24.643 6.10564 25.1341 5.72953 25.1101 4.57065V4.54009L23.9802 4.56343L23.9813 4.56399Z" fill="#60983E"/>
<path d="M31.2026 7.78289L31.102 5.76789L29.1607 5.40678L28.3411 7.25066L27.1506 7.02899L30.2117 0.54406L31.8827 0.854613L32.3537 7.99621L31.2032 7.78233L31.2026 7.78289ZM29.6023 4.42401L31.053 4.69401L30.9096 1.74016L30.7995 1.7196L29.6023 4.42401Z" fill="#60983E"/>
<path d="M33.4028 8.34901L36.0875 1.95462L37.5611 2.57184L37.2224 8.03122L37.3164 8.07068L39.316 3.30738L40.3203 3.72793L37.6356 10.1223L36.1714 9.50899L36.5101 4.04959L36.4161 4.01016L34.4165 8.77346L33.4028 8.34901Z" fill="#60983E"/>
</svg>
