<svg width="49" height="60" viewBox="0 0 49 60" fill="none" xmlns="http://www.w3.org/2000/svg">
<path d="M33.7936 52.2107H15.2059C14.7809 52.2107 14.3837 52.0023 14.1429 51.654C13.9078 51.314 13.8574 50.8923 14.0046 50.4968L16.6307 43.4363C16.4404 43.4385 16.2572 43.3313 16.1714 43.1469C16.0541 42.8952 16.162 42.5958 16.4132 42.478C16.5377 42.4197 16.6606 42.3597 16.7828 42.3002C16.8918 42.2469 17.0014 42.1935 17.1132 42.1408L19.5007 35.7219L18.74 34.8908L13.0667 50.1451C12.8028 50.854 12.8952 51.6135 13.3201 52.2284C13.7484 52.8479 14.4533 53.2179 15.2064 53.2179H33.7942C34.2783 53.2179 34.7415 53.0645 35.1255 52.7912L34.4377 52.0401C34.2445 52.1507 34.0238 52.2118 33.7942 52.2118L33.7936 52.2107Z" fill="#60983E"/>
<path d="M21.667 29.057L21.6692 27.887C21.6714 26.8236 21.6731 25.8681 21.6742 25.0681C21.6753 24.4392 21.677 23.907 21.6775 23.4953L21.6803 22.2942L19.5234 22.3009H19.5207C19.2241 22.3009 18.9458 22.1859 18.7377 21.9776C18.5319 21.7715 18.419 21.4982 18.419 21.2037C18.4201 20.5948 18.9203 20.0981 19.5345 20.0965L29.4766 20.0587H29.4793C29.7759 20.0587 30.0543 20.1737 30.2623 20.382C30.4676 20.5876 30.581 20.8615 30.581 21.1559C30.5799 21.7642 30.0797 22.2609 29.4655 22.262L27.3142 22.2698L27.3131 22.7703C27.3115 23.6303 27.3098 24.722 27.3076 25.997L27.3026 29.0431C27.3009 29.593 27.3956 30.1364 27.5836 30.6569L30.275 37.8614L31.3651 40.7519L33.1871 42.7424L31.2129 37.5063L28.5255 30.3114C28.3782 29.9025 28.3041 29.4769 28.3052 29.0453L28.3102 25.9987C28.3119 24.9598 28.3135 24.0425 28.3147 23.2731L29.4689 23.2692C30.633 23.2665 31.5814 22.3193 31.5831 21.1531C31.5831 20.5932 31.3651 20.0665 30.97 19.6703C30.5722 19.272 30.0432 19.0531 29.4783 19.0531H29.4727L19.5306 19.0909C18.3664 19.0937 17.418 20.041 17.4164 21.2081C17.4164 21.7681 17.6344 22.2948 18.0294 22.6909C18.4273 23.0893 18.9563 23.3082 19.5207 23.3082H19.5262L20.676 23.3048V23.4937C20.6743 23.9053 20.6733 24.4375 20.6722 25.067C20.671 25.8664 20.6693 26.8225 20.6672 27.8853L20.6649 29.0547V29.0631L21.5608 30.042C21.6305 29.7197 21.6664 29.3903 21.6676 29.0575L21.667 29.057Z" fill="#60983E"/>
<path d="M16.8375 43.389C16.9665 43.3285 17.0927 43.2668 17.2194 43.2052C18.1318 42.7613 18.9938 42.3418 20.7573 42.3418C22.5207 42.3418 23.3817 42.7607 24.2941 43.2046C25.0727 43.583 25.8733 43.9718 27.1808 44.1124L26.0232 42.8479C25.5446 42.694 25.1424 42.499 24.7307 42.2985C23.7569 41.8251 22.7498 41.3352 20.7568 41.3352C18.9867 41.3352 17.994 41.7219 17.1115 42.1402L16.6295 43.4357C16.6987 43.4352 16.7695 43.4202 16.8364 43.3885L16.8375 43.389Z" fill="#60983E"/>
<path d="M16.7823 42.2996C16.66 42.359 16.5372 42.419 16.4126 42.4774C16.162 42.5951 16.0541 42.8946 16.1708 43.1463C16.2566 43.3307 16.4392 43.4379 16.6295 43.4357L17.1115 42.1402C17.0002 42.1929 16.8918 42.2463 16.7823 42.2996Z" fill="#60983E"/>
<path d="M39.6936 54.3189C39.5581 54.3189 39.4236 54.2645 39.3246 54.1562L7.37355 19.2526C7.18653 19.0482 7.19979 18.7298 7.40344 18.5415C7.60708 18.3537 7.92415 18.367 8.11173 18.5715L40.0627 53.4751C40.2497 53.6795 40.2364 53.9979 40.0328 54.1862C39.9366 54.2751 39.8149 54.3189 39.6936 54.3189Z" fill="#60983E"/>
<path d="M24.5 60C21.1928 60 17.9841 59.3495 14.9635 58.0667C12.0458 56.8278 9.42583 55.0545 7.17601 52.7951C4.9262 50.5363 3.15999 47.9057 1.92551 44.9763C0.647929 41.9435 0 38.7219 0 35.4014C0 32.0808 0.647929 28.8592 1.92551 25.8264C3.15943 22.897 4.9262 20.2665 7.17601 18.0076C9.42583 15.7488 12.0458 13.9755 14.9635 12.736C17.9841 11.4532 21.1928 10.8027 24.5 10.8027C27.8072 10.8027 31.0159 11.4532 34.0365 12.736C36.9541 13.9749 39.5741 15.7482 41.8239 18.0076C44.0737 20.2665 45.8399 22.897 47.0744 25.8264C48.352 28.8592 49 32.0808 49 35.4014C49 38.7219 48.352 41.9435 47.0744 44.9763C45.8405 47.9057 44.0743 50.5363 41.8239 52.7951C39.5741 55.054 36.9541 56.8273 34.0365 58.0667C31.0159 59.3495 27.8072 60 24.5 60ZM24.5 11.8099C21.3278 11.8099 18.2508 12.4338 15.3542 13.6638C12.556 14.8521 10.0433 16.5532 7.88536 18.7198C5.72744 20.8865 4.03314 23.4098 2.84958 26.2187C1.62458 29.127 1.00316 32.2164 1.00316 35.4014C1.00316 38.5864 1.62458 41.6758 2.84958 44.584C4.03314 47.3935 5.72744 49.9162 7.88536 52.0829C10.0433 54.2495 12.5566 55.9506 15.3542 57.1389C18.2508 58.3689 21.3278 58.9928 24.5 58.9928C27.6722 58.9928 30.7492 58.3689 33.6458 57.1389C36.444 55.9506 38.9566 54.2495 41.1146 52.0829C43.2725 49.9162 44.9668 47.3929 46.1503 44.584C47.3754 41.6758 47.9968 38.5864 47.9968 35.4014C47.9968 32.2164 47.3754 29.127 46.1503 26.2187C44.9668 23.4093 43.2725 20.8865 41.1146 18.7198C38.9566 16.5532 36.4434 14.8521 33.6458 13.6638C30.7492 12.4338 27.6722 11.8099 24.5 11.8099Z" fill="#60983E"/>
<path d="M6.1242 13.3826L2.10376 7.70213L3.40629 6.77269L7.86943 9.95654L7.95242 9.89711L4.95784 5.66548L5.84536 5.03216L9.8658 10.7126L8.57155 11.636L4.10848 8.4521L4.02549 8.5116L7.02007 12.7432L6.1242 13.3826Z" fill="#60983E"/>
<path d="M13.3196 9.16378C12.047 9.70937 10.8164 9.31493 10.1491 7.74549L9.34179 5.84718C8.67446 4.27774 9.24105 3.11276 10.5137 2.56666L10.5696 2.54276C11.8422 1.99722 13.0728 2.39166 13.7401 3.96108L14.5475 5.8594C15.2148 7.42881 14.6481 8.5938 13.3755 9.13995L13.3196 9.16378ZM12.976 8.19992C13.7529 7.8666 13.9604 7.36663 13.5088 6.30495L12.7016 4.40664C12.25 3.34498 11.7465 3.14943 10.9697 3.48275L10.9138 3.50664C10.1369 3.83998 9.92942 4.33997 10.3809 5.40163L11.1882 7.29993C11.6397 8.36157 12.1432 8.55714 12.9201 8.22382L12.976 8.19992Z" fill="#60983E"/>
<path d="M16.8657 7.70883L15.5655 0.863328L17.1353 0.562772L19.8731 5.32273L19.9733 5.30384L19.0049 0.204998L20.0745 0L21.3748 6.84549L19.8156 7.14385L17.0777 2.38387L16.9776 2.40276L17.9459 7.50163L16.8663 7.70826L16.8657 7.70883Z" fill="#60983E"/>
<path d="M22.7914 3.87997L22.7742 2.82775L25.3184 2.78665L25.3356 3.83886L22.7914 3.87997Z" fill="#60983E"/>
<path d="M29.434 4.67776L29.5938 3.64777L31.8265 3.99666L31.2865 7.47999L30.2506 7.31826L30.3746 6.52052L30.254 6.50163C29.9187 7.0694 29.4307 7.29331 28.6565 7.17219L28.5962 7.16274C27.3596 6.96941 26.6745 6.00386 26.9362 4.31777L27.2522 2.27834C27.5139 0.592244 28.6089 -0.0949724 29.9867 0.120581L30.0471 0.130026C31.4043 0.342246 32.2398 1.33113 31.9787 3.01722L30.8626 2.84278C31.0413 1.69168 30.7154 1.26835 29.891 1.14001L29.8307 1.13057C28.9858 0.998354 28.5476 1.30224 28.3688 2.45334L28.0523 4.49277C27.8736 5.64386 28.1995 6.06719 29.0239 6.19609L29.0743 6.20386C29.8185 6.31997 30.3674 6.03386 30.5461 4.88276L30.5511 4.85276L29.4351 4.67832L29.434 4.67776Z" fill="#60983E"/>
<path d="M32.6454 7.82381L35.2278 1.35554L36.4462 1.84609L36.527 5.10384L36.631 5.14551L38.9306 2.84553L40.149 3.33608L37.5667 9.80433L36.5369 9.38994L38.3806 4.77107L38.286 4.73329L36.2642 6.69383L35.7164 6.47327L35.6217 3.66108L35.5177 3.61941L33.6735 8.23827L32.6437 7.82381H32.6454Z" fill="#60983E"/>
<path d="M40.6697 11.9366C39.5332 11.1438 39.2128 9.88766 40.1823 8.486L41.3553 6.79104C42.3253 5.38939 43.6096 5.25272 44.746 6.04549L44.7964 6.0805C45.933 6.87326 46.2539 8.12935 45.2839 9.53101L44.1108 11.226C43.1415 12.6277 41.8566 12.7643 40.7201 11.9715L40.6697 11.9366ZM41.3005 11.1327C41.9944 11.6166 42.5267 11.5277 43.1829 10.5793L44.3559 8.88432C45.0122 7.93604 44.9093 7.40385 44.2154 6.91993L44.1651 6.88493C43.4712 6.40105 42.9389 6.48993 42.2827 7.43825L41.1096 9.13325C40.4534 10.0816 40.5563 10.6138 41.2502 11.0977L41.3005 11.1327Z" fill="#60983E"/>
</svg>
