<svg width="66" height="65" viewBox="0 0 66 65" fill="none" xmlns="http://www.w3.org/2000/svg">
<g clip-path="url(#clip0_468_1015)">
<mask id="mask0_468_1015" style="mask-type:luminance" maskUnits="userSpaceOnUse" x="1" y="0" width="65" height="65">
<path d="M65.375 0.47876H1.375V64.4788H65.375V0.47876Z" fill="white"/>
</mask>
<g mask="url(#mask0_468_1015)">
<path d="M33.3752 0.478667H33.3002C24.7505 0.501167 16.7255 3.84366 10.6929 9.90395C4.66535 15.9615 1.35271 24.0038 1.37511 32.5542C1.39761 41.104 4.74011 49.129 10.8004 55.1616C16.8429 61.1716 24.8529 64.4838 33.3751 64.4838H33.4501C41.9999 64.4613 50.0248 61.1188 56.0575 55.0586C62.09 49.0011 65.3951 40.9561 65.3797 32.4083C65.3372 14.7885 50.9906 0.478667 33.3752 0.478667ZM54.5426 53.5514C48.9151 59.2038 41.4226 62.329 33.445 62.3462H33.375C25.7801 62.3462 18.6172 59.5237 13.0825 54.3789L17.3325 50.0914C17.7475 49.6764 17.7425 48.9989 17.3275 48.5814C16.9125 48.1664 16.235 48.1714 15.8175 48.5864L11.5725 52.8689C6.38746 47.3339 3.53473 40.1591 3.51489 32.5437C3.49989 24.5661 6.5874 17.0615 12.2125 11.409C17.84 5.754 25.3325 2.62882 33.305 2.61154H33.375C41.2003 2.61154 48.3299 5.64156 53.6623 10.5841L46.3171 17.9665C45.9021 18.3815 45.9021 19.0589 46.3171 19.4765C46.5246 19.684 46.7971 19.7865 47.0696 19.7865C47.3421 19.7865 47.6196 19.679 47.8271 19.4715L55.1723 12.0891C60.1549 17.4116 63.2197 24.5588 63.2421 32.4091C63.2571 40.3867 60.1696 47.8913 54.5445 53.5438L54.5426 53.5514ZM40.5951 27.0861C40.3126 26.5261 40.1676 25.9236 40.1676 25.2936V22.2811H40.5676C41.8901 22.2811 42.9676 21.1936 42.9676 19.8585V17.8685C42.9676 16.5361 41.8901 15.446 40.5676 15.446H30.6623C29.3398 15.446 28.2623 16.5335 28.2623 17.8685V19.8585C28.2623 21.191 29.3398 22.2811 30.6623 22.2811H31.0673V25.2936C31.0673 25.9061 30.9298 26.4985 30.6573 27.0486L27.6073 32.0036C24.7223 30.7136 21.7998 30.0136 20.742 30.7236C20.0446 31.1936 19.622 32.7186 19.457 34.6386C16.7271 34.4936 15.5945 34.7336 15.0145 35.5236C13.692 37.3211 16.8595 45.6087 19.6595 47.6689C20.982 48.6388 22.357 49.1314 23.717 49.1314C24.7345 49.1314 25.7395 48.8539 26.7045 48.3039C26.7145 48.3039 26.732 48.3039 26.742 48.3089C27.3245 48.3939 27.9045 48.4314 28.4645 48.4314C29.962 48.4314 31.302 48.1389 32.107 47.5939C32.6395 47.2364 33.1795 46.5864 33.6545 45.7589H44.2197C45.4721 45.7589 46.6197 45.1139 47.2822 44.0364C47.9547 42.9439 48.0072 41.6038 47.4272 40.4639L40.5997 27.0815L40.5951 27.0861ZM20.9253 45.9558C18.7553 44.3558 16.7278 38.3232 16.7803 36.8358C17.0628 36.7608 17.7453 36.6858 19.3728 36.7783C19.3878 39.9883 19.9803 43.5783 21.0953 45.2308C21.5528 45.9133 22.1353 46.4533 22.7653 46.8733C22.1578 46.7183 21.5428 46.4158 20.9253 45.9558ZM27.0478 46.2008C25.1278 45.9233 23.6078 45.1333 22.8653 44.0408C21.1428 41.4858 21.3303 34.0511 21.9803 32.5355C23.5753 32.483 30.5403 35.1281 32.2728 37.703C33.6378 39.7355 32.7003 43.2931 31.6328 44.9978L29.0028 41.0927L29.5728 38.1652C29.6853 37.5902 29.3053 37.0303 28.7303 36.9128C28.1553 36.8003 27.5953 37.1803 27.4778 37.7553L27.3178 38.5878L25.9678 36.5878C25.6378 36.0978 24.9753 35.9703 24.4853 36.3003C23.9953 36.6303 23.8678 37.2928 24.1978 37.7828L27.2328 42.2903L26.1978 42.0878C25.6228 41.9753 25.0628 42.3553 24.9453 42.9303C24.8328 43.5053 25.2128 44.0653 25.7878 44.1828L28.9178 44.7953L29.8502 46.1828C29.1352 46.3153 28.1553 46.3703 27.0353 46.2053L27.0478 46.2008ZM45.4581 42.9308C45.1856 43.3783 44.7331 43.6358 44.2156 43.6358H34.5733C35.3033 41.3258 35.4108 38.5384 34.0458 36.5107C33.2458 35.3207 31.5083 34.0407 29.5283 32.9582L32.4983 28.1307C32.4983 28.1307 32.5308 28.0782 32.5408 28.0557C32.9733 27.2032 33.2033 26.2482 33.2033 25.2982V21.2182C33.2033 20.6307 32.7233 20.1507 32.1358 20.1507H30.6633C30.5133 20.1507 30.3958 20.0232 30.3958 19.8632V17.8731C30.3958 17.7131 30.5183 17.5856 30.6633 17.5856H40.5686C40.7136 17.5856 40.8361 17.7181 40.8361 17.8731V19.8632C40.8361 20.0182 40.7136 20.1507 40.5686 20.1507H39.1011C38.5135 20.1507 38.0335 20.6307 38.0335 21.2182V25.2982C38.0335 26.2682 38.251 27.1957 38.6885 28.0607L45.516 41.4482C45.756 41.9232 45.7335 42.4832 45.4585 42.9357L45.4581 42.9308Z" fill="black"/>
</g>
</g>
<defs>
<clipPath id="clip0_468_1015">
<rect width="65" height="64" fill="white" transform="translate(0.5 0.47876)"/>
</clipPath>
</defs>
</svg>
