<svg width="65" height="65" viewBox="0 0 65 65" fill="none" xmlns="http://www.w3.org/2000/svg">
<path d="M32.8749 0.47876H32.8099C15.1676 0.51126 0.842416 14.8935 0.875056 32.5441C0.907556 50.1716 15.2604 64.4788 32.8751 64.4788H32.9401C50.5824 64.4463 64.9127 50.0641 64.8749 32.4135C64.8424 14.7937 50.4896 0.47876 32.8749 0.47876ZM54.0327 53.5566C48.4001 59.209 40.9075 62.3291 32.9273 62.3463C25.2998 62.3738 18.1222 59.5363 12.565 54.3738L19.9148 46.9914C20.3298 46.5764 20.3298 45.899 19.9148 45.4814C19.4998 45.0664 18.8223 45.0664 18.4048 45.4814L11.055 52.8638C5.86999 47.3289 3.01724 40.1541 3.00252 32.5336C2.98752 24.556 6.08003 17.0513 11.7123 11.3989C17.3448 5.74884 24.8375 2.6289 32.8176 2.61162H32.8751C40.7049 2.61162 47.8352 5.64663 53.1677 10.5969L45.2899 18.5067C44.8749 18.9217 44.8749 19.5992 45.2899 20.0167C45.4974 20.2242 45.7699 20.3267 46.0424 20.3267C46.3149 20.3267 46.5924 20.2192 46.7999 20.0117L54.6726 12.102C59.6551 17.4295 62.7199 24.5717 62.7302 32.422C62.7452 40.3996 59.6527 47.9042 54.0204 53.5567L54.0327 53.5566ZM44.9178 25.8017C44.9128 25.7367 44.8953 25.6742 44.8803 25.6092C44.8753 25.5867 44.8703 25.5667 44.8578 25.5392C44.8253 25.4592 44.7878 25.3792 44.7403 25.3092L41.4028 20.4817V18.9042C41.4028 17.3192 40.1603 16.0342 38.6303 16.0342H28.8325C27.3025 16.0342 26.06 17.3192 26.06 18.9042V20.4817L22.7225 25.3092C22.675 25.3792 22.6375 25.4592 22.605 25.5392C22.595 25.5617 22.59 25.5817 22.5826 25.6092C22.5675 25.6742 22.55 25.7317 22.545 25.8017C22.545 25.8292 22.54 25.8492 22.54 25.8767V25.9142V46.6816C22.54 48.6065 24.1025 50.169 26.0275 50.169H41.4529C43.3779 50.169 44.9404 48.6065 44.9404 46.6816V25.9142V25.8767C44.9404 25.8492 44.9404 25.8292 44.9354 25.8017H44.9178ZM38.8477 24.8467L40.3352 22.6917L41.8277 24.8467H38.8452H38.8477ZM28.193 18.9041C28.193 18.4991 28.4805 18.1692 28.833 18.1692H38.6308C38.9833 18.1692 39.2708 18.4992 39.2708 18.9041V19.7466H28.1885V18.9041H28.193ZM27.6855 21.8791H38.3108L36.2633 24.8441H25.638L27.6905 21.8791H27.6855ZM24.668 46.6791V26.9767H36.1932V48.0315H26.0229C25.2754 48.0315 24.6679 47.4239 24.6679 46.6764L24.668 46.6791ZM42.8005 46.6791C42.8005 47.4266 42.193 48.0341 41.4455 48.0341H38.3255V26.9794H42.8005V46.6818V46.6791Z" fill="black"/>
</svg>
