<svg width="116" height="21" viewBox="0 0 116 21" fill="none" xmlns="http://www.w3.org/2000/svg">
<path d="M81.7194 0.5C82.4119 0.844828 82.4119 0.844828 82.6813 1.47446C82.7647 1.74274 82.8481 2.01103 82.9341 2.28745C83.0713 2.7245 83.0713 2.7245 83.2113 3.17039C83.3046 3.47688 83.3979 3.78336 83.494 4.09914C83.59 4.40429 83.686 4.70944 83.7848 5.02384C84.4895 7.29339 84.4895 7.29339 84.4895 8.08621C87.1177 8.08621 89.7459 8.08621 92.4537 8.08621C92.4537 8.31379 92.4537 8.54138 92.4537 8.77586C91.9506 9.21212 91.9506 9.21212 91.254 9.69989C90.8814 9.96726 90.8814 9.96726 90.5012 10.24C89.9727 10.613 89.4434 10.9847 88.9133 11.3553C88.54 11.624 88.54 11.624 88.1592 11.8982C87.9289 12.0599 87.6986 12.2217 87.4613 12.3883C86.7994 13.0232 86.6613 13.3885 86.5672 14.2931C86.818 15.251 87.09 16.1613 87.4112 17.0948C88.2985 19.7433 88.2985 19.7433 88.2985 20.5C86.4184 20.3138 85.3345 19.2843 83.9262 18.1078C82.9372 17.2945 82.9372 17.2945 81.7208 17.0302C80.4988 17.6754 79.4617 18.567 78.4028 19.444C77.8672 19.8669 77.8672 19.8669 76.8716 20.5C76.4146 20.3862 75.9575 20.2724 75.4866 20.1552C76.1722 17.8793 76.8578 15.6034 77.5642 13.2586C77.1392 12.943 76.7143 12.6274 76.2765 12.3023C75.7245 11.8884 75.1727 11.4744 74.6209 11.0603C74.3401 10.8523 74.0594 10.6443 73.7701 10.43C73.5045 10.2299 73.2389 10.0299 72.9653 9.82381C72.7187 9.63962 72.4721 9.45543 72.218 9.26566C72.0397 9.10403 71.8613 8.94239 71.6776 8.77586C71.6776 8.54828 71.6776 8.32069 71.6776 8.08621C74.3058 8.08621 76.934 8.08621 79.6418 8.08621C79.7561 7.28966 79.8703 6.4931 79.9881 5.67241C80.1863 4.92358 80.1863 4.92358 80.4006 4.30523C80.5161 3.96685 80.5161 3.96685 80.6339 3.62163C80.7136 3.39516 80.7933 3.16868 80.8754 2.93534C80.9564 2.69954 81.0374 2.46373 81.1209 2.22077C81.3185 1.64652 81.5187 1.07316 81.7194 0.5Z" fill="#1D3E57"/>
<path d="M57.8269 0.5C58.5194 0.844828 58.5194 0.844828 58.7887 1.47446C58.8722 1.74274 58.9556 2.01103 59.0415 2.28745C59.1788 2.7245 59.1788 2.7245 59.3188 3.17039C59.4121 3.47688 59.5054 3.78336 59.6015 4.09914C59.6975 4.40429 59.7934 4.70944 59.8923 5.02384C60.597 7.29339 60.597 7.29339 60.597 8.08621C63.2252 8.08621 65.8534 8.08621 68.5612 8.08621C68.5612 8.31379 68.5612 8.54138 68.5612 8.77586C68.0581 9.21212 68.0581 9.21212 67.3614 9.69989C66.9888 9.96726 66.9888 9.96726 66.6087 10.24C66.0802 10.613 65.5509 10.9847 65.0207 11.3553C64.6475 11.624 64.6475 11.624 64.2666 11.8982C64.0364 12.0599 63.8061 12.2217 63.5688 12.3883C62.9068 13.0232 62.7687 13.3885 62.6746 14.2931C62.9254 15.251 63.1975 16.1613 63.5187 17.0948C64.406 19.7433 64.406 19.7433 64.406 20.5C62.5259 20.3138 61.4419 19.2843 60.0337 18.1078C59.0447 17.2945 59.0447 17.2945 57.8282 17.0302C56.6063 17.6754 55.5691 18.567 54.5103 19.444C53.9746 19.8669 53.9746 19.8669 52.9791 20.5C52.522 20.3862 52.065 20.2724 51.594 20.1552C52.2796 17.8793 52.9653 15.6034 53.6716 13.2586C53.2467 12.943 52.8218 12.6274 52.384 12.3023C51.832 11.8884 51.2801 11.4744 50.7284 11.0603C50.4476 10.8523 50.1668 10.6443 49.8776 10.43C49.612 10.2299 49.3464 10.0299 49.0728 9.82381C48.8261 9.63962 48.5795 9.45543 48.3254 9.26566C48.1471 9.10403 47.9688 8.94239 47.7851 8.77586C47.7851 8.54828 47.7851 8.32069 47.7851 8.08621C50.4133 8.08621 53.0414 8.08621 55.7493 8.08621C55.8635 7.28966 55.9778 6.4931 56.0955 5.67241C56.2938 4.92358 56.2938 4.92358 56.5081 4.30523C56.6236 3.96685 56.6236 3.96685 56.7414 3.62163C56.8211 3.39516 56.9007 3.16868 56.9828 2.93534C57.0639 2.69954 57.1449 2.46373 57.2283 2.22077C57.4259 1.64652 57.6261 1.07316 57.8269 0.5Z" fill="#1D3E57"/>
<path d="M33.9343 0.5C34.6269 0.844828 34.6269 0.844828 34.8962 1.47446C34.9796 1.74274 35.063 2.01103 35.149 2.28745C35.2862 2.7245 35.2862 2.7245 35.4263 3.17039C35.5196 3.47688 35.6128 3.78336 35.709 4.09914C35.8049 4.40429 35.9009 4.70944 35.9998 5.02384C36.7045 7.29339 36.7045 7.29339 36.7045 8.08621C39.3327 8.08621 41.9608 8.08621 44.6687 8.08621C44.6687 8.31379 44.6687 8.54138 44.6687 8.77586C44.1656 9.21212 44.1656 9.21212 43.4689 9.69989C43.0963 9.96726 43.0963 9.96726 42.7162 10.24C42.1877 10.613 41.6583 10.9847 41.1282 11.3553C40.7549 11.624 40.7549 11.624 40.3741 11.8982C40.1438 12.0599 39.9135 12.2217 39.6763 12.3883C39.0143 13.0232 38.8762 13.3885 38.7821 14.2931C39.0329 15.251 39.305 16.1613 39.6261 17.0948C40.5134 19.7433 40.5134 19.7433 40.5134 20.5C38.6334 20.3138 37.5494 19.2843 36.1411 18.1078C35.1522 17.2945 35.1522 17.2945 33.9357 17.0302C32.7138 17.6754 31.6766 18.567 30.6177 19.444C30.0821 19.8669 30.0821 19.8669 29.0866 20.5C28.6295 20.3862 28.1724 20.2724 27.7015 20.1552C28.3871 17.8793 29.0727 15.6034 29.7791 13.2586C29.3542 12.943 28.9292 12.6274 28.4914 12.3023C27.9395 11.8884 27.3876 11.4744 26.8358 11.0603C26.5551 10.8523 26.2743 10.6443 25.985 10.43C25.7194 10.2299 25.4539 10.0299 25.1802 9.82381C24.9336 9.63962 24.687 9.45543 24.4329 9.26566C24.2546 9.10403 24.0763 8.94239 23.8925 8.77586C23.8925 8.54828 23.8925 8.32069 23.8925 8.08621C26.5207 8.08621 29.1489 8.08621 31.8567 8.08621C31.971 7.28966 32.0853 6.4931 32.203 5.67241C32.4012 4.92358 32.4012 4.92358 32.6155 4.30523C32.731 3.96685 32.731 3.96685 32.8489 3.62163C32.9285 3.39516 33.0082 3.16868 33.0903 2.93534C33.1713 2.69954 33.2523 2.46373 33.3358 2.22077C33.5334 1.64652 33.7336 1.07316 33.9343 0.5Z" fill="#1D3E57"/>
<path d="M10.0418 0.5C10.7343 0.844828 10.7343 0.844828 11.0037 1.47446C11.0871 1.74274 11.1705 2.01103 11.2564 2.28745C11.3937 2.7245 11.3937 2.7245 11.5337 3.17039C11.627 3.47688 11.7203 3.78336 11.8164 4.09914C11.9124 4.40429 12.0084 4.70944 12.1072 5.02384C12.8119 7.29339 12.8119 7.29339 12.8119 8.08621C15.4401 8.08621 18.0683 8.08621 20.7761 8.08621C20.7761 8.31379 20.7761 8.54138 20.7761 8.77586C20.273 9.21212 20.273 9.21212 19.5764 9.69989C19.2038 9.96726 19.2038 9.96726 18.8236 10.24C18.2951 10.613 17.7658 10.9847 17.2357 11.3553C16.8624 11.624 16.8624 11.624 16.4816 11.8982C16.2513 12.0599 16.021 12.2217 15.7837 12.3883C15.1217 13.0232 14.9837 13.3885 14.8896 14.2931C15.1404 15.251 15.4124 16.1613 15.7336 17.0948C16.6209 19.7433 16.6209 19.7433 16.6209 20.5C14.7408 20.3138 13.6568 19.2843 12.2486 18.1078C11.2596 17.2945 11.2596 17.2945 10.0431 17.0302C8.82122 17.6754 7.78406 18.567 6.72519 19.444C6.18955 19.8669 6.18955 19.8669 5.19403 20.5C4.73696 20.3862 4.27988 20.2724 3.80896 20.1552C4.49457 17.8793 5.18018 15.6034 5.88657 13.2586C5.46163 12.943 5.03669 12.6274 4.59888 12.3023C4.04693 11.8884 3.49507 11.4744 2.94328 11.0603C2.66252 10.8523 2.38176 10.6443 2.09249 10.43C1.82691 10.2299 1.56132 10.0299 1.28769 9.82381C1.04107 9.63962 0.794457 9.45543 0.540368 9.26566C0.362047 9.10403 0.183725 8.94239 0 8.77586C0 8.54828 0 8.32069 0 8.08621C2.62818 8.08621 5.25636 8.08621 7.96418 8.08621C8.07845 7.28966 8.19272 6.4931 8.31045 5.67241C8.50869 4.92358 8.50869 4.92358 8.72299 4.30523C8.83849 3.96685 8.83849 3.96685 8.95632 3.62163C9.036 3.39516 9.11567 3.16868 9.19776 2.93534C9.27878 2.69954 9.35979 2.46373 9.44326 2.22077C9.64085 1.64652 9.84105 1.07316 10.0418 0.5Z" fill="#1D3E57"/>
<path d="M105.612 0.5C106.304 0.844828 106.304 0.844828 106.574 1.47446C106.657 1.74274 106.741 2.01103 106.827 2.28745C106.964 2.7245 106.964 2.7245 107.104 3.17039C107.197 3.47688 107.29 3.78336 107.387 4.09914C107.483 4.40429 107.578 4.70944 107.677 5.02384C108.382 7.29339 108.382 7.29339 108.382 8.08621C110.896 8.08621 113.41 8.08621 116 8.08621C115.383 9.31442 115.191 9.661 114.179 10.43C113.963 10.5966 113.746 10.7633 113.523 10.9351C113.298 11.1044 113.073 11.2738 112.84 11.4483C112.612 11.623 112.384 11.7977 112.149 11.9776C111.588 12.407 111.024 12.8331 110.46 13.2586C110.988 15.6855 111.578 18.0932 112.191 20.5C110.311 20.3138 109.227 19.2843 107.819 18.1078C106.83 17.2945 106.83 17.2945 105.613 17.0302C104.391 17.6754 103.354 18.567 102.295 19.444C101.76 19.8669 101.76 19.8669 100.764 20.5C100.307 20.3862 99.85 20.2724 99.3791 20.1552C100.065 17.8793 100.75 15.6034 101.457 13.2586C101.032 12.943 100.607 12.6274 100.169 12.3023C99.6171 11.8884 99.0652 11.4744 98.5134 11.0603C98.2327 10.8523 97.9519 10.6443 97.6626 10.43C97.3971 10.2299 97.1315 10.0299 96.8578 9.82381C96.6112 9.63962 96.3646 9.45543 96.1105 9.26566C95.9322 9.10403 95.7539 8.94239 95.5701 8.77586C95.5701 8.54828 95.5701 8.32069 95.5701 8.08621C98.1983 8.08621 100.827 8.08621 103.534 8.08621C103.649 7.28966 103.763 6.4931 103.881 5.67241C104.079 4.92358 104.079 4.92358 104.293 4.30523C104.409 3.96685 104.409 3.96685 104.526 3.62163C104.606 3.39516 104.686 3.16868 104.768 2.93534C104.849 2.69954 104.93 2.46373 105.013 2.22077C105.211 1.64652 105.411 1.07316 105.612 0.5ZM105.958 7.05172C105.887 8.21521 105.845 9.37813 105.807 10.5431C105.786 10.8711 105.766 11.1992 105.745 11.5372C105.675 13.3935 105.675 13.3935 106.509 14.9892C107.111 15.5031 107.707 15.9494 108.382 16.3621C108.611 16.2483 108.839 16.1345 109.075 16.0172C108.732 14.7655 108.389 13.5138 108.036 12.2241C108.493 11.9966 108.95 11.769 109.421 11.5345C109.896 11.088 110.36 10.6305 110.806 10.1552C109.549 10.1552 108.292 10.1552 106.997 10.1552C106.768 9.13103 106.54 8.1069 106.304 7.05172C106.19 7.05172 106.076 7.05172 105.958 7.05172Z" fill="#1D3E57"/>
</svg>
