<svg width="47" height="40" viewBox="0 0 47 40" fill="none" xmlns="http://www.w3.org/2000/svg">
<path d="M35.994 16.6962C36.0524 14.9381 35.6827 13.1932 34.9192 11.6234C34.4012 10.9793 33.6823 10.5446 32.8878 10.3951C29.6015 10.085 26.3016 9.9579 23.0022 10.0144C19.7149 9.95534 16.4268 10.0783 13.1521 10.3828C12.5046 10.5053 11.9055 10.8211 11.4277 11.2918C10.3647 12.3112 10.2466 14.0554 10.1285 15.5293C9.95716 18.1794 9.95716 20.8385 10.1285 23.4886C10.1627 24.3182 10.2815 25.1416 10.4828 25.9451C10.6252 26.5655 10.9134 27.1395 11.3214 27.6156C11.8024 28.1112 12.4155 28.445 13.0812 28.5737C15.6275 28.9005 18.1931 29.036 20.7582 28.979C24.8919 29.0404 28.5178 28.979 32.8051 28.6351C33.4871 28.5143 34.1175 28.1801 34.6122 27.677C34.9428 27.333 35.1898 26.9119 35.3326 26.4487C35.755 25.1008 35.9625 23.6902 35.9468 22.2726C35.994 21.5848 35.994 17.4332 35.994 16.6962ZM20.333 23.0096V15.4065L27.3249 19.2265C25.3644 20.3565 22.7778 21.6339 20.333 23.0096Z" fill="white"/>
</svg>
